<?xml version="1.0" standalone="no"?>
<!DOCTYPE svg PUBLIC "-//W3C//DTD SVG 20010904//EN" "http://www.w3.org/TR/2001/REC-SVG-20010904/DTD/svg10.dtd">
<svg version="1.0" xmlns="http://www.w3.org/2000/svg" width="800.000000pt" height="800.000000pt" viewBox="0 0 800.000000 800.000000" preserveAspectRatio="xMidYMid meet">
	<g transform="translate(0.000000,800.000000) scale(0.100000,-0.100000)" fill="#000000" stroke="none">
		<path d="M5085 7954 c-49 -26 -107 -55 -127 -65 -20 -11 -40 -23 -43 -29 -4
		-6 -11 -8 -16 -5 -5 4 -9 2 -9 -3 0 -6 -19 -17 -42 -27 -24 -9 -61 -27 -83
		-40 -22 -12 -43 -22 -46 -21 -4 0 -15 -6 -25 -14 -11 -9 -32 -22 -49 -30 -16
		-8 -42 -22 -57 -32 -14 -10 -33 -18 -42 -18 -9 0 -16 -4 -16 -8 0 -4 -16 -14
		-35 -21 -19 -7 -40 -18 -47 -24 -7 -7 -83 -48 -168 -91 -85 -44 -172 -90 -192
		-103 -21 -13 -38 -21 -38 -17 0 3 -7 -2 -16 -10 -8 -9 -22 -16 -29 -16 -7 0
		-21 -7 -29 -16 -9 -8 -26 -17 -38 -19 -13 -3 -24 -9 -26 -15 -2 -6 -8 -8 -13
		-4 -5 3 -9 1 -9 -3 0 -5 -17 -17 -37 -27 -21 -10 -51 -25 -68 -34 -16 -8 -73
		-38 -125 -65 -126 -66 -459 -255 -590 -335 -405 -250 -756 -522 -1071 -830
		-536 -523 -870 -1046 -1038 -1622 -90 -310 -121 -530 -121 -852 0 -253 13
		-381 61 -603 188 -861 805 -1593 1613 -1913 337 -134 638 -192 996 -192 460 0
		898 106 1345 326 700 343 1404 1054 1855 1874 108 195 311 628 399 848 22 53
		61 140 89 192 27 52 49 97 48 100 -1 7 22 64 71 175 58 130 75 169 85 195 14
		36 33 77 59 135 13 28 23 53 21 57 -1 4 13 38 30 75 18 37 31 71 30 76 -1 4 3
		7 9 7 5 0 7 5 4 10 -3 6 -1 10 4 10 6 0 11 11 11 24 0 14 4 27 9 30 5 3 23 43
		42 88 18 46 39 92 46 104 7 11 10 24 6 27 -3 4 2 16 12 27 10 11 15 20 10 20
		-4 0 -3 6 2 13 6 6 16 29 22 50 7 20 17 37 22 37 5 0 8 3 7 8 -3 11 11 51 39
		112 13 30 29 64 33 75 5 11 20 46 34 77 14 32 28 69 32 83 3 14 11 25 17 25 6
		0 7 3 4 6 -3 4 0 16 8 28 8 11 15 28 15 38 0 10 5 18 12 18 6 0 8 3 5 6 -3 4
		-1 16 5 28 7 11 13 23 13 26 1 3 9 22 18 44 16 35 17 123 17 1057 l0 1019
		-1412 0 -1413 0 -90 -46z m-1707 -1755 c2 -10 -29 -35 -92 -73 -169 -105 -480
		-354 -547 -438 -33 -43 -49 -78 -35 -78 2 0 73 13 158 29 138 26 177 30 403
		33 241 3 250 2 250 -16 0 -16 -21 -27 -105 -56 -701 -244 -1338 -870 -1559
		-1535 -32 -93 -44 -120 -58 -120 -27 0 -28 95 -3 330 17 151 33 243 66 374 24
		96 42 176 41 178 -8 8 -87 -58 -129 -108 -75 -90 -233 -310 -272 -381 -55 -99
		-90 -88 -66 20 42 192 168 507 281 700 336 578 831 946 1524 1136 99 28 138
		29 143 5z m577 -1192 c55 -14 147 -42 205 -62 507 -176 902 -637 996 -1160 24
		-139 25 -389 1 -509 -118 -583 -536 -1001 -1127 -1127 -138 -29 -385 -31 -535
		-5 -383 68 -741 295 -963 611 -205 290 -310 685 -273 1024 38 348 163 629 380
		854 81 84 207 187 229 187 6 0 12 4 14 8 5 14 127 78 209 111 42 16 114 39
		160 50 73 17 110 24 229 45 14 3 104 3 200 1 147 -2 191 -7 275 -28z"/>
	</g>
</svg>