<?xml version="1.0" standalone="no"?>
<!DOCTYPE svg PUBLIC "-//W3C//DTD SVG 20010904//EN"
 "http://www.w3.org/TR/2001/REC-SVG-20010904/DTD/svg10.dtd">
<svg version="1.0" xmlns="http://www.w3.org/2000/svg"
 width="420.000000pt" height="420.000000pt" viewBox="0 0 420.000000 420.000000"
 preserveAspectRatio="xMidYMid meet">
<metadata>
Created by potrace 1.11, written by Peter Selinger 2001-2013
</metadata>
<g transform="translate(0.000000,420.000000) scale(0.100000,-0.100000)"
fill="#98715F" stroke="none">
<path d="M0 3585 l0 -615 50 0 c27 0 68 -7 90 -16 46 -18 70 -8 70 30 0 11 9
48 20 80 11 33 27 103 36 155 30 177 63 298 95 351 56 91 64 60 19 -73 -18
-53 -34 -128 -40 -190 -6 -56 -15 -127 -20 -157 -19 -121 -6 -213 31 -223 25
-7 20 -34 -13 -81 l-21 -29 40 -36 c31 -28 44 -51 62 -108 13 -45 28 -73 36
-73 8 0 39 51 70 118 32 64 81 167 111 227 30 61 54 115 54 121 0 6 15 45 34
87 19 41 39 90 44 108 25 84 54 145 82 174 16 17 30 36 30 42 0 13 64 87 133
155 26 25 47 52 47 60 0 8 16 29 35 48 19 18 44 54 56 79 11 25 29 55 39 66
23 27 66 111 80 160 14 45 44 99 73 133 l20 22 -331 0 -331 0 -20 -45 c-13
-28 -18 -57 -15 -74 5 -24 1 -31 -30 -49 -39 -23 -43 -37 -24 -88 10 -29 9
-35 -15 -64 -15 -17 -27 -40 -27 -50 0 -10 -20 -38 -44 -63 -23 -25 -46 -58
-49 -73 -4 -18 -17 -35 -36 -46 l-30 -17 -7 36 c-5 28 0 48 25 100 24 48 31
71 26 93 -5 22 -1 37 14 56 12 15 21 32 21 39 0 7 7 18 15 25 19 16 60 91 69
125 4 16 16 40 27 53 10 14 19 29 19 33 0 5 -139 9 -310 9 l-310 0 0 -615z
m510 -371 c0 -41 -5 -94 -12 -119 -9 -31 -9 -51 -2 -62 16 -25 28 -20 35 16
10 48 29 65 54 47 17 -13 18 -19 7 -76 -7 -41 -20 -72 -35 -89 -14 -14 -31
-39 -38 -56 -20 -43 -50 -40 -64 6 -5 20 -17 44 -25 54 -24 29 -19 107 9 146
21 28 25 45 26 118 1 95 8 119 31 100 10 -8 14 -34 14 -85z"/>
<path d="M2899 4182 c34 -17 44 -29 55 -65 3 -9 18 -22 33 -28 48 -20 87 -39
123 -62 30 -19 55 -23 170 -28 162 -7 182 -16 263 -123 68 -91 80 -114 117
-223 17 -51 43 -114 60 -139 41 -65 50 -121 51 -312 0 -220 5 -242 49 -264 33
-15 36 -15 48 0 7 9 18 35 24 57 15 53 25 65 55 65 32 0 38 21 25 89 -10 53
-9 57 14 79 22 21 24 31 23 96 -1 40 3 82 9 93 8 15 8 29 -1 52 -10 27 -9 37
8 68 22 40 22 40 113 79 55 24 62 30 62 54 0 25 -3 28 -32 26 -48 -2 -49 28
-3 55 26 16 35 27 33 43 -3 20 -9 21 -93 21 -54 0 -99 5 -113 13 -21 12 -21
14 -7 42 15 30 21 54 7 33 -4 -7 -13 -9 -20 -4 -9 6 -9 19 3 59 9 28 19 54 24
57 14 8 44 112 38 130 -9 22 -20 19 -61 -21 -30 -30 -42 -35 -64 -29 -41 10
-62 34 -62 72 l0 33 -492 0 c-476 0 -492 -1 -459 -18z"/>
<path d="M4180 3531 c0 -6 5 -13 10 -16 6 -3 10 1 10 9 0 9 -4 16 -10 16 -5 0
-10 -4 -10 -9z"/>
<path d="M1656 3416 c-34 -13 -85 -58 -86 -77 -1 -18 116 -66 231 -95 96 -24
189 -92 189 -138 0 -9 8 -23 19 -32 43 -38 1 -68 -107 -78 -35 -3 -73 -11 -85
-18 -15 -9 -65 -12 -165 -11 -129 2 -148 0 -185 -19 l-41 -21 29 -23 c40 -32
73 -39 95 -19 31 28 86 35 141 19 27 -8 49 -18 49 -22 0 -4 -14 -15 -30 -24
-17 -9 -30 -24 -30 -33 0 -20 80 -95 102 -95 21 0 88 -64 90 -87 0 -10 2 -24
2 -32 2 -32 102 -29 166 5 50 26 93 79 104 128 4 15 15 30 26 33 28 7 40 52
29 108 -10 56 -33 95 -54 95 -8 0 -15 9 -15 19 0 11 -5 21 -12 23 -6 2 -9 12
-5 21 8 22 60 22 121 2 26 -9 57 -13 73 -9 39 9 93 43 93 58 0 7 11 23 25 36
31 29 31 40 2 73 -15 19 -32 27 -53 27 -32 0 -91 39 -129 85 -27 32 -104 54
-230 65 -55 5 -122 16 -149 24 -73 24 -164 29 -210 12z"/>
<path d="M4170 3344 c-16 -41 -11 -97 10 -124 l20 -25 0 88 c0 88 -11 111 -30
61z"/>
<path d="M4177 3053 c-15 -15 -20 -16 -38 -4 -27 16 -36 7 -62 -61 -15 -39
-22 -88 -26 -180 -6 -133 -13 -152 -54 -153 -19 0 -24 -9 -38 -75 -9 -41 -21
-91 -26 -110 -6 -19 -14 -55 -17 -79 -4 -24 -15 -55 -26 -68 -11 -14 -22 -41
-26 -62 -3 -20 -20 -61 -36 -91 -16 -30 -39 -91 -50 -135 -11 -44 -31 -101
-44 -127 -13 -26 -24 -58 -24 -72 0 -14 -4 -28 -10 -31 -19 -12 -10 -45 24
-82 43 -49 52 -68 60 -124 10 -65 24 -80 82 -86 50 -5 133 -31 135 -42 1 -3 3
-22 5 -41 7 -56 33 -74 119 -80 l75 -5 0 863 c0 474 -1 862 -3 862 -1 0 -11
-8 -20 -17z"/>
<path d="M3009 3055 c-2 -2 -64 -8 -137 -14 -72 -7 -139 -14 -147 -18 -9 -3
-27 -25 -41 -49 -26 -43 -27 -90 -3 -120 5 -6 11 -100 15 -210 8 -284 31 -354
133 -418 22 -15 41 -30 41 -35 0 -4 18 -21 41 -35 35 -23 47 -26 82 -20 41 7
65 10 137 17 45 5 50 27 16 72 -43 56 -40 59 90 70 57 5 73 3 84 -10 16 -19
50 -20 50 -1 0 8 -12 24 -26 35 -15 11 -39 40 -54 64 -15 24 -48 66 -74 93
-46 49 -54 68 -37 79 10 6 93 -36 123 -62 16 -14 45 -85 55 -135 6 -31 27 -43
43 -23 14 17 -31 129 -65 160 -61 55 -96 105 -90 125 8 24 55 29 55 5 0 -8 11
-22 25 -31 14 -9 25 -24 25 -34 0 -9 8 -24 18 -34 11 -9 36 -50 58 -91 48 -95
63 -95 80 0 6 39 17 83 23 98 6 16 11 54 11 86 0 45 -5 64 -25 91 -14 19 -25
40 -25 48 0 7 -11 37 -24 66 -33 72 -115 143 -177 152 -24 4 -61 15 -81 25
-21 11 -47 19 -58 19 -12 0 -33 6 -48 14 -28 14 -87 28 -93 21z m192 -418 c-1
-12 -15 -9 -19 4 -3 6 1 10 8 8 6 -3 11 -8 11 -12z"/>
<path d="M3800 2824 c0 -14 -5 -35 -12 -47 -6 -12 -13 -42 -14 -67 -2 -25 -5
-63 -6 -85 -4 -48 21 -57 33 -12 4 16 13 34 19 42 32 39 53 195 26 195 -8 0
-17 -6 -19 -12 -4 -10 -6 -10 -6 0 -2 24 -21 12 -21 -14z"/>
<path d="M0 2799 c0 -5 5 -7 10 -4 5 3 10 8 10 11 0 2 -4 4 -10 4 -5 0 -10 -5
-10 -11z"/>
<path d="M15 2376 c-12 -18 -15 -46 -13 -122 3 -93 4 -99 23 -96 36 6 48 28
49 94 1 42 8 72 20 91 15 22 16 30 6 42 -20 24 -67 19 -85 -9z"/>
<path d="M1805 2224 c-35 -18 -75 -54 -75 -66 0 -17 -75 -99 -102 -114 -54
-28 -45 -94 12 -94 20 0 37 11 59 38 33 40 36 43 102 106 51 47 78 108 59 131
-15 19 -18 18 -55 -1z"/>
<path d="M2100 2153 c-40 -21 -80 -75 -80 -109 0 -30 35 -42 60 -19 12 11 49
20 102 26 106 12 130 22 126 52 -7 50 -144 83 -208 50z"/>
<path d="M2472 2108 c-31 -33 -60 -67 -63 -76 -19 -51 -29 -91 -29 -113 0 -14
-5 -30 -11 -36 -17 -17 -2 -60 27 -80 20 -13 27 -14 34 -4 6 10 15 8 40 -10
27 -20 46 -25 126 -27 106 -4 115 -11 128 -83 4 -21 18 -53 31 -73 14 -20 25
-43 25 -51 0 -17 90 -79 100 -68 8 9 37 137 46 203 4 36 0 58 -20 103 -14 32
-28 74 -32 95 -6 34 -46 106 -65 118 -5 2 -13 -15 -19 -38 -18 -67 -70 -111
-70 -60 0 9 -18 46 -40 82 -22 36 -43 82 -46 102 -8 44 -28 64 -72 70 -30 4
-39 -1 -90 -54z"/>
<path d="M2227 1803 c-4 -3 -7 -12 -7 -20 0 -11 4 -11 20 -1 11 7 20 16 20 20
0 10 -24 10 -33 1z"/>
<path d="M2232 1739 c2 -6 8 -10 13 -10 5 0 11 4 13 10 2 6 -4 11 -13 11 -9 0
-15 -5 -13 -11z"/>
<path d="M2015 1589 c-46 -5 -95 -17 -116 -29 -20 -11 -44 -20 -52 -20 -8 0
-17 -4 -19 -10 -1 -5 -30 -12 -63 -13 -33 -2 -64 -6 -70 -7 -5 -2 -44 0 -85 4
-85 9 -111 2 -157 -41 -60 -56 -53 -163 10 -163 17 0 27 3 24 7 -13 13 16 33
49 33 18 0 36 5 39 10 11 18 32 10 78 -30 27 -24 55 -40 70 -40 14 0 47 -11
74 -25 26 -13 70 -34 97 -45 35 -15 46 -24 42 -36 -4 -9 8 -28 30 -50 28 -28
35 -42 32 -67 -2 -27 -11 -36 -52 -58 -26 -15 -52 -33 -57 -40 -13 -20 -11
-103 3 -117 13 -13 15 -108 5 -281 -7 -110 -10 -126 -30 -143 -12 -11 -34 -22
-50 -25 -20 -4 -33 -16 -45 -42 -16 -33 -21 -36 -65 -39 -34 -2 -61 3 -89 17
-27 13 -51 18 -75 14 -19 -3 -52 0 -75 8 -36 11 -42 11 -53 -4 -10 -14 -17
-15 -43 -5 -38 15 -62 -1 -62 -41 0 -29 -12 -53 -26 -50 -25 4 -34 -4 -44 -41
-15 -57 6 -159 36 -172 12 -6 25 -19 27 -29 5 -18 27 -19 646 -19 582 0 641 1
641 16 0 9 11 29 24 45 29 35 43 103 25 125 -9 11 -30 14 -78 13 -76 -2 -126
18 -136 53 -4 13 -18 37 -31 55 -13 17 -24 36 -24 42 0 6 -10 16 -22 22 -13 7
-35 24 -50 38 -43 42 -95 81 -107 81 -6 0 -11 13 -11 28 0 48 -29 119 -51 125
-13 4 -19 12 -17 24 5 25 109 30 174 8 26 -9 49 -14 51 -11 3 3 7 33 10 68 3
44 10 69 23 83 11 12 20 26 20 32 0 6 7 16 16 24 8 7 22 25 30 41 14 28 14 28
-24 44 -24 9 -49 29 -63 52 -21 32 -30 37 -67 40 -23 2 -42 8 -42 13 0 6 -7 6
-19 -1 -30 -16 -53 -12 -49 8 2 11 11 16 24 14 13 -2 27 6 37 21 14 22 22 24
108 25 86 0 96 -2 133 -28 52 -35 70 -57 85 -100 38 -109 52 -202 31 -215 -20
-12 -9 -54 25 -95 19 -23 35 -47 35 -54 0 -37 80 -37 108 1 7 10 20 17 28 15
17 -4 19 41 3 87 -8 23 -8 35 0 45 22 26 11 382 -14 441 -16 41 -78 74 -105
57 -31 -19 -37 -16 -83 46 -67 90 -129 158 -183 199 -16 12 -42 33 -59 45 -26
20 -41 23 -140 24 -60 1 -146 -3 -190 -7z m134 -133 c26 -16 -3 -27 -53 -21
-61 8 -79 21 -46 33 23 9 76 2 99 -12z"/>
<path d="M3643 1577 c-64 -24 -68 -33 -52 -144 7 -54 13 -132 12 -173 -1 -64
1 -72 12 -57 7 10 17 42 20 70 4 28 12 59 19 69 8 13 8 23 -2 38 -13 21 -17
70 -5 70 3 0 14 -7 24 -16 15 -14 18 -12 28 17 12 35 15 98 5 123 -7 18 -17
19 -61 3z"/>
<path d="M3493 1309 c-17 -21 -82 -249 -76 -266 3 -8 15 -13 26 -11 17 2 27
21 49 83 27 78 33 136 19 184 -5 19 -8 21 -18 10z"/>
<path d="M3859 1292 c-151 -3 -150 -2 -184 -124 -28 -101 -64 -178 -110 -238
-18 -25 -47 -67 -64 -95 -42 -70 -133 -165 -159 -165 -24 0 -38 17 -34 43 6
34 -17 16 -51 -40 -30 -49 -109 -191 -163 -293 -9 -17 -16 -86 -20 -203 l-7
-177 566 0 567 0 0 645 c0 509 -3 645 -12 646 -28 3 -210 4 -329 1z"/>
<path d="M62 1143 c-5 -16 -15 -54 -21 -85 -7 -31 -19 -62 -27 -68 -11 -10
-14 -42 -13 -154 0 -138 1 -140 15 -96 8 25 24 94 35 155 12 60 25 118 30 127
6 10 12 47 16 83 5 54 3 65 -9 65 -9 0 -20 -12 -26 -27z"/>
<path d="M2900 759 c-22 -23 -40 -50 -40 -60 0 -10 -11 -25 -23 -34 -39 -25
-47 -54 -36 -136 6 -40 8 -81 5 -92 -12 -48 42 -78 64 -37 6 12 22 25 36 30
14 6 24 18 24 29 0 10 7 24 15 31 8 7 15 19 15 27 0 8 7 28 16 45 49 95 53
211 7 229 -36 14 -40 12 -83 -32z"/>
</g>
</svg>
